# xmcd
# Track frame offsets:
# 150
# 12851
# 46094
# 65147
# 86085
# 106806
# 126952
# 151701
# 173152
# 192797
# 211438
# 226246
#
# Disc length: 3265 seconds
# Revision: 0
# Processed by: cddbd v1.5.2PL0 Copyright (c) Steve Scherf et al.
# Submitted via: VisiTrax 2.11.2.271 - For more info visit www.synapsa.com
#
DISCID=950cbf0c
DTITLE=Moondog Blues - Jump Right In
DYEAR=2012
DGENRE=Blues
TTITLE0=Mistaken for a Bullfrog
TTITLE1=Just Jump In
TTITLE2=Hot 'n Cold Blues
TTITLE3=Kayla
TTITLE4=Ol'45
TTITLE5=Sure Enough
TTITLE6=Won't be a Party
TTITLE7=Crowsline Blues
TTITLE8=Joe Simple Man
TTITLE9=Lost Days
TTITLE10=Out of Air
TTITLE11=One Hand
EXTD=
EXTT0=
EXTT1=
EXTT2=
EXTT3=
EXTT4=
EXTT5=
EXTT6=
EXTT7=
EXTT8=
EXTT9=
EXTT10=
EXTT11=
PLAYORDER=
